<svg xmlns="http://www.w3.org/2000/svg" viewBox="0 0 48 48" fill="none">
  <defs>
    <linearGradient id="grad" x1="0%" y1="0%" x2="100%" y2="100%">
      <stop offset="0%" style="stop-color:#3b82f6"/>
      <stop offset="100%" style="stop-color:#1d4ed8"/>
    </linearGradient>
  </defs>
  <rect width="48" height="48" rx="10" fill="url(#grad)"/>
  <rect x="10" y="8" width="28" height="32" rx="3" fill="white" fill-opacity="0.15"/>
  <rect x="13" y="11" width="22" height="8" rx="2" fill="white" fill-opacity="0.9"/>
  <text x="24" y="17.5" text-anchor="middle" fill="#1d4ed8" font-size="7" font-weight="bold" font-family="system-ui">$</text>
  <rect x="13" y="22" width="5" height="4" rx="1" fill="white" fill-opacity="0.6"/>
  <rect x="21" y="22" width="5" height="4" rx="1" fill="white" fill-opacity="0.6"/>
  <rect x="29" y="22" width="5" height="4" rx="1" fill="white" fill-opacity="0.6"/>
  <rect x="13" y="28" width="5" height="4" rx="1" fill="white" fill-opacity="0.6"/>
  <rect x="21" y="28" width="5" height="4" rx="1" fill="white" fill-opacity="0.6"/>
  <rect x="29" y="28" width="5" height="4" rx="1" fill="white" fill-opacity="0.6"/>
  <rect x="13" y="34" width="13" height="4" rx="1" fill="white" fill-opacity="0.6"/>
  <rect x="29" y="34" width="5" height="4" rx="1" fill="white" fill-opacity="0.6"/>
  <circle cx="38" cy="38" r="9" fill="#10b981"/>
  <path d="M33.5 38l3 3 5-5" stroke="white" stroke-width="2" stroke-linecap="round" stroke-linejoin="round"/>
</svg>